HIERARCHY
ROOT joint_0
{
	OFFSET 0.000000 0.000000 0.000000
	CHANNELS 6 Xposition Yposition Zposition Zrotation Yrotation Xrotation 
	JOINT joint_1
	{
		OFFSET 14.113007 -2.961990 123.953979
		CHANNELS 3 Zrotation Yrotation Xrotation
		JOINT joint_2
		{
			OFFSET 0.764000 -2.434006 113.871948
			CHANNELS 3 Zrotation Yrotation Xrotation
			JOINT joint_3
			{
				OFFSET 0.186996 -2.169998 113.753052
				CHANNELS 3 Zrotation Yrotation Xrotation
				JOINT joint_4
				{
					OFFSET 16.096001 -2.720001 160.853027
					CHANNELS 3 Zrotation Yrotation Xrotation
					JOINT joint_5
					{
						OFFSET 34.392006 -0.188995 92.567017
						CHANNELS 3 Zrotation Yrotation Xrotation
						End Site
						{
							OFFSET 0.000000 0.000000 0.000000
						}
					}
				}
				JOINT joint_6
				{
					OFFSET 9.183998 -36.684006 89.597046
					CHANNELS 3 Zrotation Yrotation Xrotation
					JOINT joint_7
					{
						OFFSET 0.486000 -164.365997 -28.984009
						CHANNELS 3 Zrotation Yrotation Xrotation
						JOINT joint_8
						{
							OFFSET 38.899002 -34.967010 -291.651978
							CHANNELS 3 Zrotation Yrotation Xrotation
							JOINT joint_9
							{
								OFFSET 41.714005 -45.890991 -258.857056
								CHANNELS 3 Zrotation Yrotation Xrotation
								End Site
								{
									OFFSET 0.000000 0.000000 0.000000
								}
							}
						}
					}
				}
				JOINT joint_10
				{
					OFFSET 8.867004 33.650002 90.817993
					CHANNELS 3 Zrotation Yrotation Xrotation
					JOINT joint_11
					{
						OFFSET 0.018997 164.299999 -29.368042
						CHANNELS 3 Zrotation Yrotation Xrotation
						JOINT joint_12
						{
							OFFSET 29.440994 30.887997 -293.216919
							CHANNELS 3 Zrotation Yrotation Xrotation
							JOINT joint_13
							{
								OFFSET 46.174011 54.490005 -256.422058
								CHANNELS 3 Zrotation Yrotation Xrotation
								End Site
								{
									OFFSET 0.000000 0.000000 0.000000
								}
							}
						}
					}
				}
			}
		}
	}
	JOINT joint_14
	{
		OFFSET -2.264000 -89.466995 -116.150024
		CHANNELS 3 Zrotation Yrotation Xrotation
		JOINT joint_15
		{
			OFFSET -16.400993 -17.452988 -493.781982
			CHANNELS 3 Zrotation Yrotation Xrotation
			JOINT joint_16
			{
				OFFSET -50.497004 -13.404022 -424.754013
				CHANNELS 3 Zrotation Yrotation Xrotation
				JOINT joint_17
				{
					OFFSET 198.546007 -19.341003 -89.309000
					CHANNELS 3 Zrotation Yrotation Xrotation
					End Site
					{
						OFFSET 0.000000 0.000000 0.000000
					}
				}
			}
		}
	}
	JOINT joint_18
	{
		OFFSET -0.867996 96.016006 -110.817993
		CHANNELS 3 Zrotation Yrotation Xrotation
		JOINT joint_19
		{
			OFFSET -10.130997 24.658998 -493.645020
			CHANNELS 3 Zrotation Yrotation Xrotation
			JOINT joint_20
			{
				OFFSET -48.871004 19.434999 -424.714005
				CHANNELS 3 Zrotation Yrotation Xrotation
				JOINT joint_21
				{
					OFFSET 195.579996 24.926001 -94.327003
					CHANNELS 3 Zrotation Yrotation Xrotation
					End Site
					{
						OFFSET 0.000000 0.000000 0.000000
					}
				}
			}
		}
	}
}
MOTION
Frames: 10
Frame Time: 0.016667
-3113.843506 973.304138 1144.180054 2.513438 -4.923924 -1.372070 -0.802540 -0.958262 3.633738 -0.769183 0.110809 -0.830192 -0.776082 -0.198052 0.531035 -0.188238 0.283245 0.499314 0.000000 0.000000 0.000000 -1.356201 2.799379 -2.158040 -0.219010 2.604740 0.494108 0.148916 -1.377769 -0.591471 0.000000 0.000000 0.000000 1.008474 0.839701 0.663992 -0.043767 0.650406 -0.113821 -0.230925 -0.218980 -1.016696 0.000000 0.000000 0.000000 1.724148 2.687424 3.629022 1.876674 1.429830 0.234446 2.001068 -3.465899 0.557516 0.000000 0.000000 0.000000 -2.665101 2.363517 0.058612 -2.669266 2.228685 -0.398212 -2.919922 -4.251506 -0.860465 0.000000 0.000000 0.000000 
-3113.884521 973.221252 1144.141968 2.523754 -4.981846 -1.365898 -0.810769 -0.901576 3.639731 -0.779266 0.100730 -0.835631 -0.785736 -0.184466 0.533664 -0.186333 0.280034 0.494232 0.000000 0.000000 0.000000 -1.336084 2.795123 -2.161258 -0.216960 2.603689 0.504972 0.151585 -1.386424 -0.584371 0.000000 0.000000 0.000000 1.024554 0.840163 0.663115 -0.042075 0.648301 -0.119157 -0.225786 -0.208988 -1.000148 0.000000 0.000000 0.000000 1.721346 2.742426 3.635899 1.875962 1.446228 0.219756 1.999423 -3.470260 0.556339 0.000000 0.000000 0.000000 -2.667007 2.419261 0.054731 -2.673921 2.234026 -0.402856 -2.924249 -4.236581 -0.864424 0.000000 0.000000 0.000000 
-3113.908203 973.146912 1144.095947 2.529962 -5.049864 -1.360431 -0.817994 -0.834606 3.647836 -0.788647 0.091936 -0.840184 -0.794691 -0.169837 0.535781 -0.185221 0.274540 0.491235 0.000000 0.000000 0.000000 -1.311565 2.791070 -2.167224 -0.214398 2.603544 0.521117 0.154048 -1.394548 -0.577951 0.000000 0.000000 0.000000 1.043362 0.840801 0.667635 -0.041490 0.645679 -0.132823 -0.221082 -0.200123 -0.984669 0.000000 0.000000 0.000000 1.719920 2.807895 3.645100 1.877064 1.466024 0.202236 1.999441 -3.478416 0.555537 0.000000 0.000000 0.000000 -2.666962 2.486019 0.050874 -2.677030 2.243060 -0.407774 -2.927517 -4.225184 -0.867420 0.000000 0.000000 0.000000 
-3113.859619 973.097961 1144.034058 2.509890 -5.136104 -1.358218 -0.816845 -0.752173 3.664003 -0.790277 0.081601 -0.845150 -0.795807 -0.151751 0.539191 -0.182148 0.265823 0.483031 0.000000 0.000000 0.000000 -1.290397 2.786836 -2.172830 -0.212668 2.602764 0.532730 0.156172 -1.397589 -0.568013 0.000000 0.000000 0.000000 1.064481 0.843101 0.666585 -0.041580 0.644170 -0.142113 -0.219136 -0.194325 -0.980781 0.000000 0.000000 0.000000 1.726364 2.896152 3.657358 1.886974 1.484281 0.185252 2.007856 -3.487198 0.558429 0.000000 0.000000 0.000000 -2.656863 2.581885 0.046989 -2.671887 2.248984 -0.408062 -2.922560 -4.218403 -0.865880 0.000000 0.000000 0.000000 
-3113.803467 973.073792 1143.951050 2.453312 -5.249510 -1.362928 -0.802472 -0.644132 3.688779 -0.779604 0.072201 -0.843627 -0.784570 -0.130480 0.538155 -0.177222 0.253811 0.469910 0.000000 0.000000 0.000000 -1.267213 2.778919 -2.172474 -0.212212 2.598862 0.535121 0.157798 -1.391594 -0.551135 0.000000 0.000000 0.000000 1.073067 0.842684 0.659142 -0.042415 0.642043 -0.140737 -0.221061 -0.191878 -0.994282 0.000000 0.000000 0.000000 1.743441 3.010042 3.674659 1.908380 1.504158 0.173027 2.027621 -3.491343 0.566838 0.000000 0.000000 0.000000 -2.633733 2.712131 0.045613 -2.655617 2.255606 -0.401131 -2.906362 -4.213022 -0.858756 0.000000 0.000000 0.000000 
-3113.675049 973.075012 1143.853027 2.370593 -5.381038 -1.370490 -0.780338 -0.520695 3.720780 -0.761801 0.061065 -0.841061 -0.766103 -0.105342 0.536798 -0.170757 0.238003 0.452701 0.000000 0.000000 0.000000 -1.245208 2.770543 -2.171038 -0.212618 2.594432 0.533138 0.158959 -1.380178 -0.531150 0.000000 0.000000 0.000000 1.085398 0.844029 0.646873 -0.043911 0.640872 -0.135249 -0.225617 -0.192547 -1.018617 0.000000 0.000000 0.000000 1.768383 3.146671 3.694791 1.938620 1.522190 0.161102 2.055752 -3.495778 0.578959 0.000000 0.000000 0.000000 -2.600613 2.871323 0.044015 -2.631160 2.259032 -0.389820 -2.881998 -4.211689 -0.847193 0.000000 0.000000 0.000000 
-3113.229492 973.122070 1143.750000 2.270792 -5.509905 -1.370874 -0.761092 -0.413508 3.755838 -0.746689 0.047941 -0.842568 -0.750316 -0.081125 0.538470 -0.164143 0.225843 0.435076 0.000000 0.000000 0.000000 -1.236646 2.770673 -2.175702 -0.214644 2.596406 0.529888 0.158870 -1.361826 -0.511399 0.000000 0.000000 0.000000 1.153913 0.863747 0.626881 -0.045121 0.648020 -0.131435 -0.231350 -0.196944 -1.045040 0.000000 0.000000 0.000000 1.799203 3.307065 3.710751 1.976288 1.524011 0.140898 2.089957 -3.514898 0.592396 0.000000 0.000000 0.000000 -2.558948 3.059279 0.033155 -2.600967 2.240296 -0.377633 -2.851818 -4.223671 -0.831171 0.000000 0.000000 0.000000 
-3112.648926 973.212097 1143.640991 2.135145 -5.625587 -1.359219 -0.740825 -0.328665 3.788831 -0.730284 0.028042 -0.845753 -0.733054 -0.053362 0.542054 -0.158680 0.241748 0.420617 0.000000 0.000000 0.000000 -1.229489 2.773558 -2.167572 -0.218323 2.601112 0.520303 0.155949 -1.349081 -0.515624 0.000000 0.000000 0.000000 1.277781 0.890362 0.585951 -0.045436 0.652281 -0.124887 -0.234929 -0.206043 -1.054038 0.000000 0.000000 0.000000 1.842646 3.460126 3.718632 2.026360 1.524604 0.110842 2.135275 -3.547990 0.609466 0.000000 0.000000 0.000000 -2.502862 3.247203 0.012651 -2.556619 2.215558 -0.372959 -2.809635 -4.250095 -0.807545 0.000000 0.000000 0.000000 
-3111.750488 973.349060 1143.526978 1.982543 -5.738314 -1.340345 -0.723623 -0.259825 3.825684 -0.716797 0.004465 -0.852567 -0.718628 -0.024758 0.546625 -0.153195 0.259767 0.406079 0.000000 0.000000 0.000000 -1.235288 2.784740 -2.164708 -0.223631 2.612097 0.509100 0.151916 -1.329942 -0.519825 0.000000 0.000000 0.000000 1.457711 0.935335 0.538685 -0.045549 0.664817 -0.120193 -0.239843 -0.219189 -1.065611 0.000000 0.000000 0.000000 1.891744 3.636869 3.721999 2.083664 1.508750 0.072794 2.186484 -3.595087 0.627839 0.000000 0.000000 0.000000 -2.438219 3.463500 -0.017107 -2.506480 2.168840 -0.367900 -2.761648 -4.289729 -0.779470 0.000000 0.000000 0.000000 
-3109.738281 973.559509 1143.421997 1.878361 -5.857286 -1.317234 -0.735555 -0.224520 3.870902 -0.731623 -0.004184 -0.868982 -0.733155 -0.015901 0.557205 -0.144814 0.218589 0.383492 0.000000 0.000000 0.000000 -1.290050 2.830231 -2.232703 -0.231358 2.649299 0.514999 0.151325 -1.267128 -0.454395 0.000000 0.000000 0.000000 1.759983 1.051430 0.524975 -0.046363 0.726215 -0.139112 -0.254179 -0.234515 -1.126442 0.000000 0.000000 0.000000 1.924831 3.930520 3.723589 2.132584 1.415699 0.021999 2.226653 -3.670490 0.638605 0.000000 0.000000 0.000000 -2.384002 3.793170 -0.065584 -2.478210 2.031081 -0.341873 -2.728685 -4.346320 -0.756560 0.000000 0.000000 0.000000 
